<?xml version="1.0" encoding="utf-8"?>
<!-- Generator: Adobe Illustrator 28.0.0, SVG Export Plug-In . SVG Version: 6.00 Build 0)  -->
<svg version="1.1" id="Layer_1" xmlns="http://www.w3.org/2000/svg" xmlns:xlink="http://www.w3.org/1999/xlink" x="0px" y="0px"
	 viewBox="0 0 947.4 457.7" style="enable-background:new 0 0 947.4 457.7;" xml:space="preserve">
<style type="text/css">
	.st0{display:none;fill:url(#SVGID_1_);}
	.st1{display:none;fill:url(#SVGID_00000078045828747531139820000006408546465797452698_);}
	.st2{fill:#FFFFFF;}
	.st3{display:none;fill:#FFFFFF;}
	.st4{display:none;fill:none;}
	.st5{fill:none;stroke:#FFFFFF;stroke-width:40;stroke-linecap:round;stroke-miterlimit:10;}
	.st6{fill:#FF5310;}
	.st7{fill:none;stroke:#FF5310;stroke-width:40;stroke-linecap:round;stroke-miterlimit:10;}
</style>
<g>
	<g>
		<g>
			<path class="st6" d="M579.2,267.2c0,2.1,1.6,4.2,3.7,4.7c2.7,0.7,5.1,2.1,7.1,4.2c3,3.1,4.5,6.9,4.5,11.4c0,4.4-1.6,8.1-4.7,11.2
				c-3.1,3.1-7,4.6-11.5,4.6c-10.6,0-15.9-7.4-15.9-22.2V195c0-2.6-2.1-4.7-4.7-4.7h-32.1c-2.6,0-4.7,2.1-4.7,4.7v87.7
				c0,17,4.4,30.8,13.4,41.5c5.1,6.2,11.6,11.1,19.5,14.7c7.9,3.6,16,5.4,24.3,5.4c16.5,0,30.5-5.6,41.9-16.7
				c11.3-11.1,17-24.8,17-41.1c0-15.9-5.6-29.4-16.8-40.8c-9.9-10-21.7-15.6-35.2-16.7c-2.7-0.2-5.1,1.9-5.1,4.7L579.2,267.2z"/>
			<path class="st6" d="M772.2,273.7h16.5c-1.5-8.2-6.1-12.3-13.9-12.3c-5.2,0-9.4,2.2-12.7,6.6c-3.3,4.4-4.9,10.1-4.9,17
				c0,7.2,1.6,13,4.7,17.5c2.7,3.8,6.1,6,10.2,6.5h13.6c2.6,0,4.7,2.1,4.7,4.7v26c0,2.6-2.1,4.7-4.7,4.7h-12.5
				c-6.5,0-12.6-0.9-18.2-2.6c-8.7-2.6-16.5-7.3-23.3-14c-11.2-11.1-16.8-24.8-16.8-41.1c0-16.3,5.6-30,17-41.2
				c11.3-11.2,25.2-16.8,41.7-16.8c16.1,0,29.6,5.5,40.6,16.4c10.9,10.9,16.4,24.4,16.4,40.5c0,0.8,0,1.9-0.1,3.3
				c-0.1,2.5-2.2,4.5-4.7,4.5l-53.8,0c-2.7,0-4.8-2.2-4.7-4.9l0.3-10.2C767.5,275.8,769.6,273.7,772.2,273.7z"/>
			<path class="st6" d="M659.8,190.2h32.1c2.6,0,4.8,2.1,4.8,4.8v142.4c0,2.6-2.1,4.8-4.8,4.8h-32.1c-2.6,0-4.8-2.1-4.8-4.8V195
				C655,192.4,657.2,190.2,659.8,190.2z"/>
			<path class="st6" d="M216.7,132.5c-11.2-11.3-24.7-17-40.5-17c-16.8,0-30.9,5.5-42.3,16.6c-11.4,11.1-17.2,24.8-17.2,41
				c0,16,5.7,29.6,17.2,40.9c11.4,11.3,25.2,17,41.3,17c16.1,0,29.9-5.6,41.2-16.9c11.4-11.3,17.1-24.9,17.1-40.9
				C233.6,157.4,227.9,143.8,216.7,132.5z M186.5,185.1c-3.2,3.3-7,4.9-11.4,4.9c-4.4,0-8.1-1.6-11.3-4.9c-3.1-3.3-4.7-7.2-4.7-11.8
				c0-4.7,1.6-8.6,4.7-11.8c3.1-3.2,6.9-4.8,11.3-4.8c4.5,0,8.4,1.6,11.5,4.8c3.1,3.2,4.7,7.2,4.7,11.8
				C191.3,177.9,189.7,181.9,186.5,185.1z"/>
			<path class="st6" d="M441.3,339.5c0.1,2.8-2.3,5.1-5.1,4.8c-14.4-1-26.6-6.5-36.6-16.3c-11.1-11-16.7-24.8-16.7-41.3
				c0-16.1,5.6-29.8,16.9-41c11.2-11.2,24.9-16.8,41-16.8c18,0,32.1,5.3,42.5,15.8c10.4,10.5,15.5,24.8,15.5,43v49.7
				c0,2.6-2.1,4.7-4.7,4.7H462c-2.6,0-4.7-2.1-4.7-4.7v-46.7c0-5.9-1.4-10.5-4.3-14c-2.9-3.5-6.7-5.2-11.5-5.2
				c-4.4,0-8.2,1.6-11.4,4.8c-3.2,3.2-4.8,7-4.8,11.4c0,4.6,1.5,8.4,4.3,11.3c2,2.1,4.4,3.4,7.1,4c2.1,0.5,3.9,2.6,4,4.8
				L441.3,339.5z"/>
			<path class="st6" d="M369.4,304.5v34.6c0,2.6-2.1,4.7-4.7,4.7l-0.1,0c-9.4,0-18.3-2.2-26.7-6.6c-8.4-4.4-15-10.3-20.1-17.8
				c-6.4-9.6-9.6-22.3-9.6-38.1V166.2c0-6.4-2.6-9.6-7.9-9.6c-5.2,0-7.8,3.2-7.8,9.6v57.9c0,2.6-2.1,4.7-4.7,4.7h-32.1
				c-2.6,0-4.7-2.1-4.7-4.7V167c0-14.5,4.8-26.7,14.4-36.6c9.6-9.9,21.3-14.9,35.2-14.9c15.9,0,28.6,5.7,38.2,17.3
				c7.5,9,11.2,21.5,11.2,37.5v57.5c0,2.8,2.2,5,5,5h8.9c2.6,0,4.7,2.1,4.7,4.7V272c0,2.6-2.1,4.7-4.7,4.7h-13.9
				c0,8.8,1.4,14.9,4.2,18.3c2.2,2.7,5.9,4.3,11.1,4.8C367.6,300,369.4,302.1,369.4,304.5z"/>
		</g>
		<path class="st3" d="M307,331.8L307,331.8c0,7-5.7,12.7-12.7,12.7H148.9c-17.5,0-31.7-14.2-31.7-31.7v-69c0-7,5.7-12.7,12.7-12.7
			h0c7,0,12.7,5.7,12.7,12.7v69c0,3.5,2.8,6.4,6.4,6.4h145.4C301.3,319.1,307,324.8,307,331.8z"/>
		<path class="st3" d="M356.7,128.1L356.7,128.1c0-7,5.7-12.7,12.7-12.7h429.5c17.5,0,31.7,14.2,31.7,31.7v69
			c0,7-5.7,12.7-12.7,12.7h0c-7,0-12.7-5.7-12.7-12.7v-69c0-3.5-2.8-6.4-6.4-6.4H369.4C362.4,140.8,356.7,135.1,356.7,128.1z"/>
	</g>
	<path class="st7" d="M278.6,324.4h-76.9c-35.8,0-64.8-29-64.8-64.8v0"/>
	<path class="st7" d="M382.2,134.8h363.1c35.8,0,64.8,29,64.8,64.8v0"/>
</g>
</svg>
